DataType=double
version=3
OpenSimVersion=4.5-2023-11-26-efcdfd3eb
endheader
time	EMG01_right_gast_med	EMG02_right_glut_max	EMG03_left_gast_med	EMG04_left_glut_max	EMG05_right_glut_med	EMG06_right_bic_fem	EMG07_right_rect_fem	EMG08_right_vast_lat	EMG09_right_vast_med	EMG10_right_tens_fasc_lat	EMG11_left_glut_med	EMG12_left_bic_fem	EMG13_left_rect_fem	EMG14_left_vast_lat	EMG15_left_vast_med	EMG16_left_tens_fasc_lat
1.92	0.07367375292665897	0.1165739005072156	0.1515639718376435	0.04449338736549985	0.1273368242496709	0.223482091998113	0.07649689617894276	0.04201998722523771	0.07413949397261627	0.1385529066178113	0.03492433732150038	0.0181206827352666	0.05781498897354708	0.02346594419003006	0.01599474735219926	0.04004835034464239
1.93	0.07866467183959455	0.1229383441041961	0.1456178574195775	0.04836653741728615	0.1331965002478167	0.2228888105883386	0.07825499744887196	0.04381021554532371	0.078831772753609	0.1458895160293607	0.0328267310925661	0.01776802553045976	0.05671778986819902	0.02378957344296597	0.01685145443878483	0.03878762592751359
1.94	0.08384807106811192	0.1292444704038502	0.1393141867502282	0.05243599839134785	0.138530272521735	0.2216267297383913	0.07968704669150528	0.04548346689317805	0.08333069100561862	0.1530507889089536	0.03075431716054753	0.01728352869137908	0.05543433081570964	0.02405406607024619	0.01769286815013256	0.03823852448811031
1.95	0.08922500924084327	0.135393900792188	0.132698873190561	0.05666532657528777	0.1432835984659897	0.2197025531015888	0.08077908228013775	0.04702214225590028	0.08759125335471488	0.159952739339009	0.02871823283719816	0.01667902608518841	0.05397571235480014	0.02425714395359889	0.01850494378532056	0.03838766662486925
1.96	0.09479375065881558	0.1412910350691564	0.1258216477431472	0.06101478303024013	0.1474103029946909	0.2171302285224189	0.08152202303034306	0.0484099550519045	0.09157072675003454	0.1665158931015677	0.02673003541205773	0.01596847985471765	0.05235550876340082	0.02439764905569685	0.01927504570682046	0.03921424873522634
1.97	0.1005498636401966	0.1468445023134389	0.1187352467028433	0.06544184754387082	0.1508732541836831	0.2139310883775122	0.08191187873512909	0.04963214454773936	0.09522924189813996	0.1726664438632345	0.0248016157831896	0.01516780045513966	0.05058959533200191	0.02447556215936992	0.01999202152297435	0.04069050972152437
1.98	0.1064863699745326	0.1519685674711398	0.1114945579423451	0.06990181509366673	0.1536448633275341	0.2101338245593301	0.08194987104083171	0.05067567341841879	0.09853036394198879	0.1783372848948101	0.02294511898548288	0.01429465785057558	0.04869597062578516	0.02449202781670498	0.02064626407732289	0.04278228744908676
1.99	0.1125939369744035	0.1565844633203581	0.1041557484272742	0.07434846800107077	0.155707390865099	0.2057742842682188	0.08164245793131865	0.05152940728226381	0.1014416223558205	0.1834688885603734	0.02117287127939413	0.01336828401607034	0.04669457431036993	0.02444938446980543	0.02122976272535607	0.04544965354349768
2	0.1188611046656728	0.1606216137837359	0.09677539281152198	0.07873481445567641	0.1570530463789216	0.2008950844221229	0.08100126053792436	0.05218427504442741	0.1039349880535683	0.188010009762601	0.01949731357196792	0.01240926645909464	0.04460710112799306	0.02435119820598299	0.02173614478316871	0.04864761444390545
2.01	0.125274542932294	0.1640187134865671	0.089409620290296	0.08301388120348996	0.1576838785366645	0.1955450536248233	0.08004289472892666	0.05263340921695005	0.1059872844243579	0.1919181977582222	0.0179309407303164	0.01143933218160193	0.04245681142606759	0.02420229795145784	0.02216070734231249	0.05232686628527965
2.02	0.1318193359624323	0.1667246306265254	0.08211329531242542	0.08713954498398892	0.1576114595938534	0.1897785190810166	0.07878871212611763	0.05287226482679423	0.1075805195177585	0.1951601127148974	0.01648624583286745	0.01048112139069507	0.04026833813814577	0.02400880904349172	0.0225004390736191	0.05643459091248004
2.03	0.1384792927426478	0.1686991057137318	0.07493924692452503	0.09106738394979369	0.1568563783577734	0.1836544608763112	0.07726445724250361	0.05289871433257226	0.1087021291263489	0.1977116569098719	0.01517566772034514	0.00955795041226107	0.03806748945266207	0.02377818118088654	0.02275403124961177	0.06091528009558276
2.04	0.1452372822657836	0.169913227034067	0.06793756070728697	0.09475552703673476	0.1554475640472993	0.1772355589495046	0.07549984960124155	0.0527131144288668	0.1093451243673568	0.199557941864264	0.01401153945979167	0.008693563652632215	0.03588104560646346	0.02351920586565191	0.02292187692699719	0.0657115750355322
2.05	0.152075591255274	0.1703496731133126	0.06115494601549501	0.09816547633464445	0.1534214698943077	0.1705871606328193	0.07352810108548108	0.0523183390327421	0.1095081413364058	0.200693119097257	0.013006034578563	0.007911874954913556	0.03373654728569984	0.02324201764124489	0.02300605699483345	0.0707651085006523
2.06	0.158976301020562	0.1700027212662721	0.05463418928844082	0.1012628753120152	0.1508211488257036	0.1637761984486968	0.07138537887458905	0.05171977179767242	0.1091953932022955	0.2011201036217788	0.01217110724864315	0.007236699196748416	0.03166207236366517	0.02295807274150364	0.02301031161322317	0.07601733688215932
2.07	0.1659216783482953	0.1688780290828573	0.04841370151524033	0.1040181948134203	0.1476952542978387	0.1568700871921464	0.06911022369393761	0.05092525209923617	0.1084165261174308	0.200850217279596	0.01151842217903762	0.00669147545436294	0.02968599779950536	0.02268009843920923	0.02293999542620069	0.081410348605436
2.08	0.1728945727334473	0.1669922024797202	0.04252716481656908	0.1064073096850687	0.1440969979414492	0.1499356264297498	0.06674293270063009	0.04994497090042823	0.1071863804049872	0.1999027742163902	0.01105927005214997	0.006298983522106623	0.02783674464839201	0.02242200683825803	0.02280201476014154	0.08688763379256298
2.09	0.1798788085264385	0.164372169329047	0.03700327996811333	0.1084119418525651	0.1400830926575047	0.1430379317344045	0.0643249166619205	0.0487913163567519	0.1055246595222006	0.1983046233733984	0.01080446515103349	0.006081056017878872	0.02614250559354576	0.02219876826887271	0.02260474474860199	0.09239479834031415
2.1	0.1868595559199983	0.1610543816893049	0.03186561384573247	0.1100199501154689	0.1357127059012398	0.1362394166422622	0.06189804204359638	0.04747867205554939	0.1034555124392459	0.19608965368295	0.0107642234062836	0.006058288688260902	0.02463095532197591	0.02202624160332871	0.02235792401379308	0.09788020426599345
2.11	0.1938236599852179	0.157083872709317	0.02713254334378238	0.1112254525151632	0.1310464440667802	0.1295988467399606	0.05950396968790997	0.04602317270825647	0.1010070397300954	0.1932982584164624	0.01094802110420767	0.006249751816622897	0.02332894441658929	0.02192096140398973	0.02207252442429451	0.10329551815167
2.12	0.2007599032352644	0.152513195943854	0.02281729027162789	0.112028774589996	0.1261453857207727	0.12317048606895	0.05718350221247036	0.04444242323048971	0.09821073815072591	0.1899767479696485	0.01136443631880383	0.006672705879776347	0.02226217796830805	0.02189988456372772	0.02176059382830547	0.1085961518100313
2.13	0.2076591749801084	0.1474012746357654	0.01892803994441804	0.1124362264360511	0.12107017884003	0.1170033534407957	0.05497595163504072	0.04275518800627268	0.09510090136176619	0.1861766973276598	0.01202097629047015	0.007342324929879282	0.02145488117757773	0.02198010157490324	0.02143507065683297	0.1137415845763187
2.14	0.2145145201446297	0.1418121875147255	0.01546813459426416	0.1124597215616807	0.1158802147408472	0.1111406023543276	0.05291853717911109	0.04098105797933011	0.09171399543055304	0.181954216330368	0.01292389449436394	0.008271431653496912	0.0209294553824755	0.02217851935672885	0.02110957081577215	0.1186955646402408
2.15	0.2213210419171603	0.135813917260962	0.01243633143956522	0.1121162588600198	0.1106328885118821	0.1056190334637308	0.05104582135831279	0.0391401040185045	0.08808802728368635	0.1773691364819206	0.01407800137766456	0.009470248542061369	0.02070612885636501	0.02251152358562402	0.02079814912366806	0.1234261956598616
2.16	0.2280756383196609	0.1294770877821564	0.009827114420200556	0.1114272948344026	0.1053829520854798	0.1004687436974855	0.04938919096385847	0.03725252560981064	0.08426192278415739	0.1724841157183087	0.01548647298700449	0.01094616991684642	0.02080260762937388	0.02299462889895063	0.02051503940253076	0.1279059215281759
2.17	0.2347765639310347	0.1228737157106542	0.00763104825003936	0.1104180364545069	0.1001819617540791	0.09571291221122145	0.04797638891143332	0.03533830409328742	0.08027492876270224	0.1673636713451817	0.01715066199174543	0.01270355966345965	0.02123373280308996	0.02364212544968727	0.02027437891462614	0.1321114252430226
2.18	0.2414228234053733	0.1160759998422297	0.005835163416792425	0.1091166853692601	0.09507781775546	0.09136772122758173	0.04683110294744217	0.03341686924967836	0.07616605050566264	0.162073160149287	0.01906991585524994	0.01474357954508347	0.0220111520761272	0.0244667302294378	0.02008992401913777	0.1360234591606689
2.19	0.2480134197284909	0.1091551701581714	0.004423360999410403	0.1075536617948589	0.09011439040597985	0.0874424091785653	0.04597261753912167	0.0315067872036598	0.07197353346356955	0.1566777316119445	0.02124140712397739	0.01706405292755264	0.02314301396971756	0.0254792513282674	0.01997476461751815	0.1396266256637177
2.2	0.2545464944558865	0.1021804156619691	0.003376826804653946	0.1057608325753867	0.08533122552255558	0.08393945296675415	0.04541553550982176	0.02962547664051953	0.06773439556814731	0.1512412840387792	0.02365998111822425	0.01965936861897241	0.02463369334055037	0.02668827286759548	0.01994104507184763	0.1429091289557873
2.21	0.2610184084132348	0.09521790721406359	0.002674445509227226	0.1037707643892691	0.08076332143098411	0.08085487425474772	0.04516957581390477	0.02778895934336529	0.06348401429156771	0.1458254542441103	0.02631802676038895	0.02252042925514299	0.02648355634822036	0.02809986788275841	0.01999969883900202	0.14586251831064
2.22	0.2674228190273895	0.0883299280946394	0.002293207171357626	0.1016160206022622	0.07644097039292387	0.07817866122108599	0.045239452941012	0.02601164993904203	0.05925577022204168	0.1404886694095093	0.02920537665493609	0.02563464823710227	0.02868877238088914	0.02971734607252206	0.02016020326455452	0.1484814399332541
